<svg width="112" height="114" viewBox="0 0 112 114" fill="none" xmlns="http://www.w3.org/2000/svg">
<rect opacity="0.6" width="100" height="100" fill="#1DD3B0"/>
<rect opacity="0.6" x="11.8726" y="14.147" width="99" height="99" stroke="#1DD3B0"/>
<g clip-path="url(#clip0_1181_18216)">
<path d="M103.868 30.6241L65.6548 6.30537C65.0987 5.95571 64.3993 5.94161 63.8327 6.27045L21.8677 30.75C21.1858 31.1521 20.8535 31.9565 21.0634 32.7189C21.2661 33.4848 21.9622 34.0128 22.749 34.0128H103.182C103.21 34.0162 103.238 34.0128 103.252 34.0128C104.217 34.0128 105.001 33.2294 105.001 32.2642C105.001 31.5158 104.528 30.8759 103.868 30.6241ZM29.2187 30.5157L64.6757 9.83043L97.181 30.5157H29.2187Z" fill="#172350"/>
<path d="M103.181 75.9781H22.7486C21.7834 75.9781 21 76.7615 21 77.7267V88.2179C21 89.1831 21.7834 89.9665 22.7486 89.9665H103.182C104.15 89.9665 104.93 89.1831 104.93 88.2179V77.7267C104.93 76.7615 104.147 75.9781 103.181 75.9781ZM101.433 86.4693H24.497V79.4751H101.433V86.4693H101.433Z" fill="#172350"/>
<path d="M43.7311 37.5101H33.2398C32.2746 37.5101 31.4912 38.2935 31.4912 39.2587V70.7324C31.4912 71.6976 32.2746 72.481 33.2398 72.481H43.7311C44.6997 72.481 45.4797 71.6976 45.4797 70.7324V39.2587C45.4795 38.2935 44.6963 37.5101 43.7311 37.5101ZM41.9825 68.9838H34.9882V41.0073H41.9825V68.9838Z" fill="#172350"/>
<path d="M33.2399 37.5101H29.7427C28.7775 37.5101 27.9941 38.2935 27.9941 39.2587C27.9941 40.2239 28.7775 41.0073 29.7427 41.0073H33.2398C34.2084 41.0073 34.9884 40.2239 34.9884 39.2587C34.9884 38.2935 34.2051 37.5101 33.2399 37.5101Z" fill="#172350"/>
<path d="M33.2399 68.9839H29.7427C28.7775 68.9839 27.9941 69.7673 27.9941 70.7325C27.9941 71.6977 28.7775 72.4811 29.7427 72.4811H33.2398C34.2084 72.4811 34.9884 71.6977 34.9884 70.7325C34.9884 69.7673 34.2051 68.9839 33.2399 68.9839Z" fill="#172350"/>
<path d="M47.2283 68.9839H43.7313C42.7661 68.9839 41.9827 69.7673 41.9827 70.7325C41.9827 71.6977 42.7661 72.4811 43.7313 72.4811H47.2283C48.1969 72.4811 48.9769 71.6977 48.9769 70.7325C48.9769 69.7673 48.1935 68.9839 47.2283 68.9839Z" fill="#172350"/>
<path d="M47.2283 37.5101H43.7313C42.7661 37.5101 41.9827 38.2935 41.9827 39.2587C41.9827 40.2239 42.7661 41.0073 43.7313 41.0073H47.2283C48.1969 41.0073 48.9769 40.2239 48.9769 39.2587C48.9769 38.2935 48.1935 37.5101 47.2283 37.5101Z" fill="#172350"/>
<path d="M68.2115 37.5101H57.7203C56.7551 37.5101 55.9717 38.2935 55.9717 39.2587V70.7324C55.9717 71.6976 56.7551 72.481 57.7203 72.481H68.2115C69.1802 72.481 69.9601 71.6976 69.9601 70.7324V39.2587C69.9601 38.2935 69.1767 37.5101 68.2115 37.5101ZM66.4629 68.9838H59.4687V41.0073H66.4629V68.9838Z" fill="#172350"/>
<path d="M57.7193 37.5101H54.2222C53.257 37.5101 52.4736 38.2935 52.4736 39.2587C52.4736 40.2239 53.257 41.0073 54.2222 41.0073H57.7193C58.6879 41.0073 59.4679 40.2239 59.4679 39.2587C59.4679 38.2935 58.6845 37.5101 57.7193 37.5101Z" fill="#172350"/>
<path d="M57.7193 68.9839H54.2222C53.257 68.9839 52.4736 69.7673 52.4736 70.7325C52.4736 71.6977 53.257 72.4811 54.2222 72.4811H57.7193C58.6879 72.4811 59.4679 71.6977 59.4679 70.7325C59.4679 69.7673 58.6845 68.9839 57.7193 68.9839Z" fill="#172350"/>
<path d="M71.7085 68.9839H68.2115C67.2463 68.9839 66.4629 69.7673 66.4629 70.7325C66.4629 71.6977 67.2463 72.4811 68.2115 72.4811H71.7085C72.6772 72.4811 73.4571 71.6977 73.4571 70.7325C73.4571 69.7673 72.6737 68.9839 71.7085 68.9839Z" fill="#172350"/>
<path d="M71.7085 37.5101H68.2115C67.2463 37.5101 66.4629 38.2935 66.4629 39.2587C66.4629 40.2239 67.2463 41.0073 68.2115 41.0073H71.7085C72.6772 41.0073 73.4571 40.2239 73.4571 39.2587C73.4571 38.2935 72.6737 37.5101 71.7085 37.5101Z" fill="#172350"/>
<path d="M92.69 37.5101H82.1988C81.2336 37.5101 80.4502 38.2935 80.4502 39.2587V70.7324C80.4502 71.6976 81.2336 72.481 82.1988 72.481H92.69C93.6587 72.481 94.4386 71.6976 94.4386 70.7324V39.2587C94.4386 38.2935 93.6552 37.5101 92.69 37.5101ZM90.9416 68.9838H83.9474V41.0073H90.9416V68.9838Z" fill="#172350"/>
<path d="M82.1997 37.5101H78.7027C77.7375 37.5101 76.9541 38.2935 76.9541 39.2587C76.9541 40.2239 77.7375 41.0073 78.7027 41.0073H82.1997C83.1684 41.0073 83.9483 40.2239 83.9483 39.2587C83.9483 38.2935 83.1649 37.5101 82.1997 37.5101Z" fill="#172350"/>
<path d="M82.1997 68.9839H78.7027C77.7375 68.9839 76.9541 69.7673 76.9541 70.7325C76.9541 71.6977 77.7375 72.4811 78.7027 72.4811H82.1997C83.1684 72.4811 83.9483 71.6977 83.9483 70.7325C83.9483 69.7673 83.1649 68.9839 82.1997 68.9839Z" fill="#172350"/>
<path d="M96.1865 68.9839H92.6895C91.7243 68.9839 90.9409 69.7673 90.9409 70.7325C90.9409 71.6977 91.7243 72.4811 92.6895 72.4811H96.1865C97.1552 72.4811 97.9351 71.6977 97.9351 70.7325C97.9351 69.7673 97.1517 68.9839 96.1865 68.9839Z" fill="#172350"/>
<path d="M96.1865 37.5101H92.6895C91.7243 37.5101 90.9409 38.2935 90.9409 39.2587C90.9409 40.2239 91.7243 41.0073 92.6895 41.0073H96.1865C97.1552 41.0073 97.9351 40.2239 97.9351 39.2587C97.9351 38.2935 97.1517 37.5101 96.1865 37.5101Z" fill="#172350"/>
</g>
<defs>
<clipPath id="clip0_1181_18216">
<rect width="84" height="84" fill="white" transform="translate(21 6)"/>
</clipPath>
</defs>
</svg>
