<svg width="367" height="213" viewBox="0 0 367 213" fill="none" xmlns="http://www.w3.org/2000/svg">
<path opacity="0.4" d="M362.832 25.2356C366.954 34.3499 366.016 45.3314 360.613 57.4741C355.211 69.616 345.38 82.8347 331.875 96.3267C304.868 123.307 263.29 151.262 213.536 173.768C163.782 196.273 115.333 209.039 77.2391 211.506C58.1891 212.739 41.77 211.394 29.0846 207.434C16.3982 203.473 7.53107 196.927 3.40845 187.813C-0.714164 178.699 0.224761 167.717 5.62709 155.575C11.029 143.433 20.8606 130.214 34.3657 116.722C61.3719 89.7422 102.95 61.7864 152.704 39.2812C202.458 16.7759 250.907 4.00993 289.001 1.54311C308.051 0.309516 324.47 1.65432 337.156 5.61475C349.842 9.57545 358.709 16.1214 362.832 25.2356Z" stroke="#4FC1E9" stroke-width="1.5"/>
</svg>
