<svg width="30" height="30" viewBox="0 0 30 30" fill="none" xmlns="http://www.w3.org/2000/svg">
<path d="M23.4219 4H6.57812C5.15655 4 4 5.15655 4 6.57812V23.4219C4 24.8435 5.15655 26 6.57812 26H23.4219C24.8435 26 26 24.8435 26 23.4219V6.57812C26 5.15655 24.8435 4 23.4219 4ZM24.2812 23.4219C24.2812 23.8957 23.8957 24.2812 23.4219 24.2812H18.5234V17.2773H21.1785L21.6172 14.6133H18.5234V12.7656C18.5234 12.0362 19.0831 11.4766 19.8125 11.4766H21.5742V8.8125H19.8125C17.6244 8.8125 15.8603 10.585 15.8603 12.7731V14.6133H13.2812V17.2773H15.8603V24.2812H6.57812C6.10427 24.2812 5.71875 23.8957 5.71875 23.4219V6.57812C5.71875 6.10427 6.10427 5.71875 6.57812 5.71875H23.4219C23.8957 5.71875 24.2812 6.10427 24.2812 6.57812V23.4219Z" fill="#69708A"/>
</svg>
