<svg width="112" height="114" viewBox="0 0 112 114" fill="none" xmlns="http://www.w3.org/2000/svg">
<rect opacity="0.6" width="100" height="100" fill="#88CE30"/>
<rect opacity="0.6" x="12.1001" y="14.42" width="99" height="99" stroke="#88CE30"/>
<path d="M92.0602 56.1232C90.294 52.4408 83.9752 47.3294 77.8703 42.3906C74.4652 39.6381 71.2477 37.0356 69.1966 34.9845C68.6828 34.467 67.9141 34.3019 67.2354 34.5457C65.9717 35.0033 65.1916 35.3557 64.5767 35.6294C63.6392 36.0493 63.3242 36.1919 62.0604 36.3193C61.5016 36.3756 60.9992 36.6756 60.6879 37.1406C58.0366 41.1043 55.2916 40.7668 53.4578 40.1519C52.8728 39.957 52.7679 39.7056 52.7116 39.4656C52.3179 37.8195 54.2942 33.9869 56.8553 31.4256C62.9491 25.3281 66.0916 23.8018 72.7291 26.7681C80.259 30.1355 87.8041 32.7719 87.8791 32.7981C88.8654 33.1393 89.9266 32.6218 90.2678 31.643C90.6053 30.6643 90.0915 29.5955 89.1127 29.2543C89.0377 29.2281 81.6428 26.6443 74.2628 23.3405C65.6641 19.4967 60.9464 22.028 54.2077 28.7706C51.6427 31.3356 48.1589 36.5255 49.0589 40.3319C49.4451 41.9519 50.5852 43.152 52.2801 43.7106C56.5289 45.1131 60.4063 43.7705 63.2938 39.9382C64.4863 39.7545 65.1351 39.4845 66.11 39.0457C66.4625 38.8882 66.875 38.7045 67.4226 38.4832C69.5676 40.497 72.4626 42.8406 75.5113 45.3044C81.0238 49.7631 87.2751 54.8182 88.6814 57.7432C89.3752 59.1869 88.6288 60.1282 88.1226 60.5594C87.3801 61.197 86.3639 61.3995 85.8126 61.0131C85.2051 60.5968 84.4139 60.5706 83.7876 60.9456C83.1576 61.3205 82.8052 62.0293 82.8839 62.7568C83.0114 63.9493 81.9201 64.6319 81.4476 64.8681C80.2476 65.4756 78.9951 65.3707 78.5263 64.9356C78.0013 64.4482 77.2475 64.3056 76.5801 64.5531C75.9126 64.8043 75.4475 65.4194 75.38 66.1318C75.2675 67.3618 74.3563 68.543 73.1675 69.0043C72.5937 69.2217 71.7612 69.353 71.015 68.6705C70.5501 68.2505 69.905 68.0892 69.3013 68.2354C68.6901 68.3854 68.1988 68.828 67.9851 69.4167C67.9139 69.6042 67.7525 70.0542 65.9975 70.0542C64.7488 70.0542 62.5025 69.2105 61.4038 68.4829C60.0876 67.6167 51.8338 61.4592 44.7051 55.4892C43.7039 54.6454 41.9714 52.8379 40.4414 51.2404C39.0838 49.8229 37.8426 48.5367 37.2051 47.9967C36.4063 47.3217 35.2251 47.4229 34.5613 48.218C33.8939 49.0092 33.9913 50.1943 34.7826 50.8617C35.3639 51.353 36.4889 52.5417 37.7301 53.8354C39.4027 55.5829 41.1313 57.3904 42.2939 58.3655C49.2765 64.2118 57.669 70.523 59.3414 71.6217C60.7214 72.5292 63.6951 73.8042 65.9977 73.8042C67.8464 73.8042 69.2677 73.3804 70.2539 72.5517C71.5738 73.0655 73.0739 73.0692 74.5176 72.5067C76.2239 71.8467 77.6263 70.5155 78.4214 68.903C79.8988 69.218 81.5902 68.9967 83.1276 68.2243C84.6314 67.4669 85.7188 66.3081 86.2588 64.9543C87.7513 65.033 89.2887 64.5043 90.56 63.413C92.7127 61.5719 93.3051 58.707 92.0602 56.1232Z" fill="#172350"/>
<path d="M58.5001 25.0545H41.6251C40.5901 25.0545 39.75 25.8946 39.75 26.9296C39.75 27.9646 40.5901 28.8046 41.6251 28.8046H58.5001C59.5351 28.8046 60.3751 27.9646 60.3751 26.9296C60.3751 25.8946 59.5351 25.0545 58.5001 25.0545Z" fill="#172350"/>
<path d="M97.5592 52.133C96.9779 51.2743 95.8155 51.0381 94.9568 51.6231L89.4744 55.3055C88.6157 55.8829 88.3868 57.0492 88.9644 57.9079C89.3281 58.4442 89.9207 58.7367 90.5245 58.7367C90.8808 58.7367 91.2445 58.6355 91.567 58.418L97.0495 54.7356C97.908 54.158 98.1367 52.9919 97.5592 52.133Z" fill="#172350"/>
<path d="M85.9142 61.0808C84.5717 60.0233 78.5679 53.8771 74.8554 50.0071C74.1391 49.257 72.9505 49.2308 72.2041 49.9508C71.4541 50.6671 71.4316 51.8558 72.1479 52.6021C73.1117 53.6071 81.6128 62.4684 83.5891 64.0285C83.9303 64.2985 84.3429 64.4298 84.7479 64.4298C85.2991 64.4298 85.8504 64.1823 86.2253 63.7135C86.8667 62.9033 86.728 61.722 85.9142 61.0808Z" fill="#172350"/>
<path d="M78.4223 64.8422C76.176 63.0459 70.5323 57.0496 69.2572 55.6621C68.5522 54.8971 67.3709 54.8521 66.6059 55.5496C65.8446 56.2508 65.7923 57.4396 66.4934 58.2009C66.5609 58.2721 73.296 65.5435 76.0784 67.771C76.4235 68.0447 76.8397 68.1797 77.2484 68.1797C77.796 68.1797 78.3433 67.9359 78.7146 67.4785C79.3599 66.6684 79.2286 65.4871 78.4223 64.8422Z" fill="#172350"/>
<path d="M70.9593 68.6182C68.2855 66.3645 62.8143 60.5406 61.7456 59.3968C61.0368 58.6394 59.848 58.5981 59.0942 59.3068C58.3368 60.0156 58.2992 61.2005 59.0042 61.9581C60.5418 63.6043 65.7768 69.1545 68.5406 71.4869C68.893 71.7831 69.3205 71.9294 69.748 71.9294C70.2805 71.9294 70.8131 71.7007 71.1843 71.2619C71.8518 70.4669 71.7505 69.2856 70.9593 68.6182Z" fill="#172350"/>
<path d="M42.915 21.8182C39.7012 18.7731 26.85 17.7868 22.9876 17.5581C22.4551 17.5319 21.9638 17.708 21.5889 18.0643C21.2137 18.4168 21 18.9118 21 19.4293V53.1793C21 54.2143 21.8401 55.0544 22.8751 55.0544H34.1251C34.9351 55.0544 35.6551 54.5332 35.9063 53.7606C36.1799 52.9206 42.6413 33.0907 43.4924 23.3406C43.5413 22.7705 43.3312 22.208 42.915 21.8182ZM32.7562 51.3045H24.7499V21.4393C30.7762 21.9155 37.2787 22.9505 39.6412 24.098C38.6476 32.3106 34.1512 46.9018 32.7562 51.3045Z" fill="#172350"/>
<path d="M109.124 21.3045C94.4013 21.3045 86.2338 25.0732 85.8926 25.2307C85.4052 25.4594 85.0413 25.8832 84.8914 26.3971C84.7414 26.9109 84.8163 27.4621 85.0976 27.9195C87.4151 31.6508 94.6713 52.3733 96.0663 57.4282C96.2913 58.2419 97.0301 58.8044 97.8738 58.8044H109.124C110.159 58.8044 110.999 57.9643 110.999 56.9293V23.1794C110.999 22.1407 110.159 21.3045 109.124 21.3045ZM107.249 55.0545H99.2764C97.4989 49.2644 92.2489 34.1669 89.3202 27.9271C92.1814 26.9559 98.3277 25.287 107.249 25.0771V55.0545Z" fill="#172350"/>
</svg>
