<svg width="30" height="30" viewBox="0 0 30 30" fill="none" xmlns="http://www.w3.org/2000/svg">
<path d="M19.6094 4H10.3907C6.86683 4 4 6.86683 4 10.3907V19.6093C4 23.1332 6.86683 26 10.3907 26H19.6093C23.1332 26 26 23.1332 26 19.6094V10.3907C26 6.86683 23.1332 4 19.6094 4ZM24.2812 19.6093C24.2812 22.1854 22.1854 24.2812 19.6094 24.2812H10.3907C7.81455 24.2812 5.71875 22.1854 5.71875 19.6094V10.3907C5.71875 7.81455 7.81455 5.71875 10.3907 5.71875H19.6093C22.1854 5.71875 24.2812 7.81455 24.2812 10.3907V19.6093Z" fill="#69708A"/>
<path d="M15 9.07031C11.7303 9.07031 9.07031 11.7303 9.07031 15C9.07031 18.2697 11.7303 20.9297 15 20.9297C18.2697 20.9297 20.9297 18.2697 20.9297 15C20.9297 11.7303 18.2697 9.07031 15 9.07031ZM15 19.2109C12.6781 19.2109 10.7891 17.3219 10.7891 15C10.7891 12.6781 12.6781 10.7891 15 10.7891C17.3219 10.7891 19.2109 12.6781 19.2109 15C19.2109 17.3219 17.3219 19.2109 15 19.2109Z" fill="#69708A"/>
<path d="M21.0156 9.84375C21.4902 9.84375 21.875 9.45899 21.875 8.98438C21.875 8.50976 21.4902 8.125 21.0156 8.125C20.541 8.125 20.1562 8.50976 20.1562 8.98438C20.1562 9.45899 20.541 9.84375 21.0156 9.84375Z" fill="#69708A"/>
</svg>
