<svg width="100" height="42" viewBox="0 0 100 42" fill="none" xmlns="http://www.w3.org/2000/svg">
<g clip-path="url(#clip0_6626_345)">
<path d="M7.08346 33.2807H25.6655C26.0738 34.3652 26.5717 35.5393 27.1692 36.763C27.7666 37.9868 28.3143 38.9519 28.882 39.8971H0.00317383V1.65173H7.06354V17.4613H23.7933C23.6937 18.5358 23.634 19.6899 23.624 20.9236C23.6141 22.1574 23.624 23.1026 23.7236 24.0875H7.09342L7.08346 33.2807ZM11.963 1.65173H29.35C28.7525 2.59692 28.1351 3.64162 27.5276 4.80569C26.9202 5.96977 26.3825 7.19353 25.9443 8.26806H12.0028L11.963 1.65173Z" fill="#172350"/>
<path d="M79.8982 7.4617L73.1665 24.3657H81.4816L84.0608 30.7631H70.5873L67.1418 39.3593H59.9619L75.2975 1.11401H84.5487L99.8844 39.3593H92.7144L79.8982 7.4617Z" fill="#172350"/>
<path d="M41.519 7.89959H43.8094C50.113 7.89959 55.2016 13.5906 55.2016 20.2666C55.2016 20.5452 55.2016 20.8736 55.2016 21.1422C56.7591 18.5959 57.605 15.679 57.6513 12.6952C57.6513 6.01917 51.9054 1.09424 44.7057 1.09424H41.519V7.89959Z" fill="#172350"/>
<path d="M41.5092 32.5141H38.7109V7.89935H41.5092V1.11389H31.6406V39.3592H41.5092V32.5141Z" fill="#172350"/>
<path d="M62.7101 14.0884C61.4454 24.5949 55.1518 32.246 43.7895 32.5245H41.519V39.3598H44.5065C49.5968 39.3809 54.4872 37.3815 58.1024 33.8012C61.7177 30.2209 63.7619 25.3527 63.7856 20.2669C63.7891 18.1673 63.4528 16.0808 62.7898 14.0884" fill="#172350"/>
</g>
<defs>
<clipPath id="clip0_6626_345">
<rect width="99.8839" height="41.8868" fill="white"/>
</clipPath>
</defs>
</svg>
