<svg width="96" height="40" viewBox="0 0 96 40" fill="none" xmlns="http://www.w3.org/2000/svg">
<g clip-path="url(#clip0_6626_2597)">
<path d="M6.76477 31.7817H24.5098C24.8996 32.8173 25.3751 33.9385 25.9457 35.1071C26.5163 36.2757 27.0393 37.1974 27.5814 38.1H0.00341797V1.57739H6.74575V16.6748H22.7219C22.6268 17.7009 22.5698 18.8031 22.5603 19.9812C22.5508 21.1594 22.5603 22.062 22.6554 23.0026H6.77428L6.76477 31.7817ZM11.4245 1.57739H28.0283C27.4577 2.48001 26.8681 3.47764 26.2881 4.58928C25.708 5.70092 25.1944 6.86956 24.776 7.89569H11.4625L11.4245 1.57739Z" fill="#EEF2F6"/>
<path d="M76.299 7.12548L69.8705 23.268H77.8111L80.2741 29.3773H67.4075L64.1172 37.5863H57.2607L71.9056 1.06372H80.74L95.3849 37.5863H88.5379L76.299 7.12548Z" fill="#EEF2F6"/>
<path d="M39.6492 7.54373H41.8364C47.856 7.54373 52.7154 12.9784 52.7154 19.3537C52.7154 19.6197 52.7154 19.9333 52.7154 20.1898C54.2027 17.7582 55.0106 14.9727 55.0548 12.1233C55.0548 5.74801 49.5677 1.04492 42.6922 1.04492H39.6492V7.54373Z" fill="#EEF2F6"/>
<path d="M39.6394 31.0497H36.9672V7.54378H39.6394V1.06396H30.2153V37.5865H39.6394V31.0497Z" fill="#EEF2F6"/>
<path d="M59.8857 13.4536C58.678 23.4869 52.6679 30.7933 41.8174 31.0593H39.6492V37.5866H42.5021C47.3631 37.6069 52.0331 35.6975 55.4855 32.2785C58.9379 28.8594 60.8901 24.2105 60.9127 19.3539C60.9161 17.3488 60.5949 15.3563 59.9618 13.4536" fill="#EEF2F6"/>
</g>
<defs>
<clipPath id="clip0_6626_2597">
<rect width="95.3846" height="40" fill="white"/>
</clipPath>
</defs>
</svg>
