<svg width="112" height="114" viewBox="0 0 112 114" fill="none" xmlns="http://www.w3.org/2000/svg">
<rect opacity="0.6" width="100" height="100" fill="#4FC1E9"/>
<rect opacity="0.6" x="11.8726" y="14.1471" width="99" height="99" stroke="#4FC1E9"/>
<g clip-path="url(#clip0_1181_18169)">
<path d="M109.963 33.3034L66.8385 11.7409C66.3106 11.477 65.6892 11.477 65.1615 11.7409L22.0366 33.3034C21.4013 33.6211 21 34.2704 21 34.9804C21 35.6907 21.4013 36.3399 22.0366 36.6573L36.3127 43.7953V58.1239C36.3127 66.9731 49.353 73.9052 66.0002 73.9052C82.6474 73.9052 95.6875 66.9734 95.6875 58.1239V43.7953L100.67 41.3039V54.9788C98.3733 55.7616 96.7162 57.9386 96.7162 60.4971C96.7162 62.8167 98.0781 64.8235 100.044 65.7616L96.0611 76.2703C95.8427 76.8465 95.9213 77.4932 96.2715 78.0002C96.6216 78.5071 97.1984 78.8098 97.8145 78.8098H107.277C107.893 78.8098 108.47 78.5071 108.82 78.0002C109.17 77.4932 109.249 76.8465 109.031 76.2705L105.048 65.7618C107.013 64.8236 108.375 62.8169 108.375 60.4973C108.375 57.9386 106.718 55.7614 104.421 54.9788V39.429L109.964 36.6575C110.599 36.3399 111 35.6905 111 34.9805C111 34.2704 110.599 33.6211 109.963 33.3034ZM84.8278 66.2803C79.8301 68.7791 73.1436 70.1554 66 70.1554C58.8564 70.1554 52.1701 68.7792 47.1722 66.2803C42.6541 64.0212 40.0626 61.0484 40.0626 58.1241V45.6705L65.1615 58.2201C65.4255 58.3521 65.7128 58.418 66 58.418C66.2872 58.418 66.5745 58.3521 66.8385 58.2201L91.9374 45.6705V58.1241C91.9374 61.0484 89.346 64.0212 84.8278 66.2803ZM100.53 75.0603L102.546 69.7423L104.561 75.0603H100.53ZM104.625 60.4975C104.625 61.6443 103.692 62.577 102.546 62.577C101.399 62.577 100.466 61.6441 100.466 60.4975C100.466 59.3538 101.394 58.4236 102.536 58.4185C102.539 58.4185 102.542 58.4189 102.545 58.4189C102.548 58.4189 102.551 58.4185 102.554 58.4185C103.697 58.4234 104.625 59.3537 104.625 60.4975ZM102.165 36.3643L66.168 33.1137C65.1367 33.0199 64.2251 33.7812 64.132 34.8125C64.0388 35.844 64.7994 36.7554 65.8307 36.8486L95.786 39.5535L66 54.4467L27.0676 34.9804L66 15.5143L104.932 34.9805L102.165 36.3643Z" fill="#172350"/>
</g>
<defs>
<clipPath id="clip0_1181_18169">
<rect width="90" height="90" fill="white" transform="translate(21 0.176514)"/>
</clipPath>
</defs>
</svg>
