<svg width="25" height="25" viewBox="0 0 25 25" fill="none" xmlns="http://www.w3.org/2000/svg">
<g opacity="0.8">
<path fill-rule="evenodd" clip-rule="evenodd" d="M0 10.6484C0 4.77701 4.76349 0 10.6182 0C16.4733 0 21.2364 4.77701 21.2364 10.6484C21.2364 13.2311 20.3149 15.6019 18.7842 17.4476L23.8239 22.5016C24.2068 22.8852 24.2068 23.5078 23.8239 23.8914C23.6324 24.0834 23.3815 24.1794 23.1309 24.1794C22.88 24.1794 22.6294 24.0834 22.4379 23.8914L17.3983 18.8375C15.5578 20.3725 13.1936 21.2967 10.6182 21.2967C4.76349 21.2967 0 16.52 0 10.6484ZM1.96029 10.6484C1.96029 15.4359 5.84427 19.3309 10.6182 19.3309C15.3922 19.3309 19.2761 15.4359 19.2761 10.6484C19.2761 5.86086 15.3922 1.96585 10.6182 1.96585C5.84427 1.96585 1.96029 5.86091 1.96029 10.6484Z" fill="#EEF2F6"/>
</g>
</svg>
