<svg width="111" height="114" viewBox="0 0 111 114" fill="none" xmlns="http://www.w3.org/2000/svg">
<rect opacity="0.6" width="100" height="100" fill="#F3624B"/>
<rect opacity="0.6" x="11.4434" y="13.6321" width="99" height="99" stroke="#F3624B"/>
<mask id="path-3-outside-1_1181_18161" maskUnits="userSpaceOnUse" x="20.125" y="6.93161" width="90" height="75" fill="black">
<rect fill="white" x="20.125" y="6.93161" width="90" height="75"/>
<path d="M92.8951 37.8559C89.8885 21.2901 75.8027 8.54225 58.5422 7.95274C46.4005 7.53514 35.2276 13.3402 28.4753 22.4421C28.4391 22.4908 28.4077 22.5422 28.3789 22.595C10.5902 46.5659 27.5414 81.0119 57.2702 81.0559C57.2816 81.0559 57.2929 81.0566 57.3043 81.0566H57.3244H57.3452H57.3673C70.5292 81.0404 82.5155 73.8492 88.8916 62.3344L89.0556 62.4996C89.061 63.324 89.373 64.1463 89.9936 64.7737L101.856 76.7663C103.111 78.0353 105.144 78.036 106.399 76.7663L107.936 75.2136C109.188 73.9473 109.188 71.8871 107.936 70.6207L104.365 67.0113C103.863 66.5036 103.05 66.5036 102.548 67.0113C102.046 67.5189 102.046 68.3412 102.548 68.8481L106.118 72.4576C106.368 72.7108 106.368 73.1229 106.118 73.3761L104.582 74.9294C104.332 75.1825 103.924 75.1825 103.674 74.9294L91.8112 62.9361C91.5468 62.6688 91.5829 62.2492 91.8112 62.0177L93.347 60.4651L93.349 60.463C93.5907 60.2207 93.9964 60.2031 94.2555 60.4651L102.548 68.8481C103.05 69.3558 102.045 67.5189 102.548 67.0113C103.049 66.5036 104.867 67.5182 104.365 67.0113L96.0731 58.6282C95.4712 58.0197 94.6725 57.6833 93.8216 57.6779L91.0105 54.8353C94.4108 49.7923 95.0387 43.3984 92.8951 37.8559ZM74.8419 60.1693C66.8986 59.5426 60.5252 52.8725 60.5486 44.4969V44.4949C60.5761 34.7101 69.4553 27.1629 79.1969 29.1886C84.4242 30.2756 88.5736 33.9196 90.4629 38.704C94.7013 49.4411 86.4018 61.0607 74.8419 60.1693ZM31.3273 65.9832C33.6095 64.2661 36.0986 62.7974 38.7437 61.5927C40.4355 67.2028 43.341 73.1473 47.6605 77.0241C41.2616 75.0776 35.5423 71.1954 31.3273 65.9832ZM23.7548 45.7923H36.3557C36.4468 50.4265 37.0259 54.9125 38.0501 59.062C35.0951 60.3764 32.3174 62.0008 29.7774 63.9135C26.0826 58.5727 23.9971 52.3175 23.7548 45.7923ZM29.7774 25.0729C32.3174 26.9862 35.0951 28.6106 38.0508 29.925C36.9977 34.1903 36.4454 38.6857 36.3557 43.194H23.7548C24.0059 36.4739 26.1964 30.2478 29.7774 25.0729ZM47.6444 11.9771C43.3457 15.8431 40.4409 21.7646 38.7431 27.3944C36.098 26.1889 33.6095 24.7202 31.3273 23.0032C35.3655 18.0197 40.9075 14.0285 47.6444 11.9771ZM83.3343 22.993C81.6753 24.2404 79.8844 25.3713 77.9918 26.3663C77.1791 26.279 76.3617 26.2458 75.5462 26.2695C73.5017 20.0285 70.4857 15.102 66.922 11.9338C73.1616 13.8059 78.9157 17.5169 83.3343 22.993ZM41.1277 60.5937C45.7706 58.815 50.8224 57.8133 56.0397 57.6725V78.3744C48.3414 77.3679 43.3524 68.1118 41.1277 60.5937ZM40.4556 30.9111C45.322 32.7446 50.5988 33.7734 56.0397 33.9135V43.194H38.9258C39.0149 38.8482 39.5451 34.7182 40.4556 30.9111ZM56.0397 10.6126V31.3145C50.8224 31.173 45.7706 30.172 41.1277 28.3927C43.3584 20.8529 48.328 11.6157 56.0397 10.6126ZM58.6091 49.4262C59.1715 51.485 60.0987 53.4465 61.3721 55.2231C60.4529 55.1473 59.531 55.0972 58.6091 55.0735V49.4262ZM58.6091 57.6725C60.398 57.7212 62.1861 57.8715 63.9469 58.124C66.4567 60.4136 69.5591 61.9473 72.8918 62.5395C69.7352 71.7267 64.4142 77.6096 58.6091 78.3717V57.6725ZM75.5148 62.8102C76.4005 62.8366 77.2875 62.7974 78.1405 62.6979C79.9762 63.6725 81.7168 64.7771 83.3329 65.9926C79.0744 71.2569 73.3262 75.0749 66.9629 77.0133C70.4903 73.8593 73.4796 68.9808 75.5148 62.8102ZM58.6091 33.9135C59.5558 33.8884 60.5024 33.8363 61.4464 33.7571C60.1409 35.5588 59.1835 37.573 58.6091 39.7145V33.9135ZM64.0486 30.8468C62.2544 31.1087 60.4314 31.2637 58.6091 31.3145V10.6147C64.4369 11.3781 69.7707 17.2949 72.9232 26.5362C69.6609 27.1108 66.5839 28.5612 64.0486 30.8468ZM56.0397 45.7923V55.0729C50.5988 55.213 45.322 56.2417 40.4556 58.0752C39.5364 54.2329 39.0135 50.084 38.9258 45.7923H56.0397ZM81.8668 61.8566C83.3965 61.3348 84.87 60.6011 86.2425 59.6556L87.0017 60.4238C86.361 61.6441 85.6547 62.813 84.8895 63.9284C83.9207 63.1987 82.9125 62.5064 81.8668 61.8566ZM81.7684 27.1906C82.8536 26.5199 83.8986 25.8052 84.9002 25.0505C86.1621 26.88 87.2527 28.8468 88.1458 30.9287C86.3362 29.2894 84.1698 27.994 81.7684 27.1906ZM89.4037 56.8861L91.3285 58.8312L90.1951 59.9771C90.1562 59.9378 89.3341 59.106 88.271 58.0319C88.2804 58.0224 88.2897 58.013 88.2991 58.0042C88.662 57.6671 89.0175 57.3145 89.4037 56.8861Z"/>
</mask>
<path d="M92.8951 37.8559C89.8885 21.2901 75.8027 8.54225 58.5422 7.95274C46.4005 7.53514 35.2276 13.3402 28.4753 22.4421C28.4391 22.4908 28.4077 22.5422 28.3789 22.595C10.5902 46.5659 27.5414 81.0119 57.2702 81.0559C57.2816 81.0559 57.2929 81.0566 57.3043 81.0566H57.3244H57.3452H57.3673C70.5292 81.0404 82.5155 73.8492 88.8916 62.3344L89.0556 62.4996C89.061 63.324 89.373 64.1463 89.9936 64.7737L101.856 76.7663C103.111 78.0353 105.144 78.036 106.399 76.7663L107.936 75.2136C109.188 73.9473 109.188 71.8871 107.936 70.6207L104.365 67.0113C103.863 66.5036 103.05 66.5036 102.548 67.0113C102.046 67.5189 102.046 68.3412 102.548 68.8481L106.118 72.4576C106.368 72.7108 106.368 73.1229 106.118 73.3761L104.582 74.9294C104.332 75.1825 103.924 75.1825 103.674 74.9294L91.8112 62.9361C91.5468 62.6688 91.5829 62.2492 91.8112 62.0177L93.347 60.4651L93.349 60.463C93.5907 60.2207 93.9964 60.2031 94.2555 60.4651L102.548 68.8481C103.05 69.3558 102.045 67.5189 102.548 67.0113C103.049 66.5036 104.867 67.5182 104.365 67.0113L96.0731 58.6282C95.4712 58.0197 94.6725 57.6833 93.8216 57.6779L91.0105 54.8353C94.4108 49.7923 95.0387 43.3984 92.8951 37.8559ZM74.8419 60.1693C66.8986 59.5426 60.5252 52.8725 60.5486 44.4969V44.4949C60.5761 34.7101 69.4553 27.1629 79.1969 29.1886C84.4242 30.2756 88.5736 33.9196 90.4629 38.704C94.7013 49.4411 86.4018 61.0607 74.8419 60.1693ZM31.3273 65.9832C33.6095 64.2661 36.0986 62.7974 38.7437 61.5927C40.4355 67.2028 43.341 73.1473 47.6605 77.0241C41.2616 75.0776 35.5423 71.1954 31.3273 65.9832ZM23.7548 45.7923H36.3557C36.4468 50.4265 37.0259 54.9125 38.0501 59.062C35.0951 60.3764 32.3174 62.0008 29.7774 63.9135C26.0826 58.5727 23.9971 52.3175 23.7548 45.7923ZM29.7774 25.0729C32.3174 26.9862 35.0951 28.6106 38.0508 29.925C36.9977 34.1903 36.4454 38.6857 36.3557 43.194H23.7548C24.0059 36.4739 26.1964 30.2478 29.7774 25.0729ZM47.6444 11.9771C43.3457 15.8431 40.4409 21.7646 38.7431 27.3944C36.098 26.1889 33.6095 24.7202 31.3273 23.0032C35.3655 18.0197 40.9075 14.0285 47.6444 11.9771ZM83.3343 22.993C81.6753 24.2404 79.8844 25.3713 77.9918 26.3663C77.1791 26.279 76.3617 26.2458 75.5462 26.2695C73.5017 20.0285 70.4857 15.102 66.922 11.9338C73.1616 13.8059 78.9157 17.5169 83.3343 22.993ZM41.1277 60.5937C45.7706 58.815 50.8224 57.8133 56.0397 57.6725V78.3744C48.3414 77.3679 43.3524 68.1118 41.1277 60.5937ZM40.4556 30.9111C45.322 32.7446 50.5988 33.7734 56.0397 33.9135V43.194H38.9258C39.0149 38.8482 39.5451 34.7182 40.4556 30.9111ZM56.0397 10.6126V31.3145C50.8224 31.173 45.7706 30.172 41.1277 28.3927C43.3584 20.8529 48.328 11.6157 56.0397 10.6126ZM58.6091 49.4262C59.1715 51.485 60.0987 53.4465 61.3721 55.2231C60.4529 55.1473 59.531 55.0972 58.6091 55.0735V49.4262ZM58.6091 57.6725C60.398 57.7212 62.1861 57.8715 63.9469 58.124C66.4567 60.4136 69.5591 61.9473 72.8918 62.5395C69.7352 71.7267 64.4142 77.6096 58.6091 78.3717V57.6725ZM75.5148 62.8102C76.4005 62.8366 77.2875 62.7974 78.1405 62.6979C79.9762 63.6725 81.7168 64.7771 83.3329 65.9926C79.0744 71.2569 73.3262 75.0749 66.9629 77.0133C70.4903 73.8593 73.4796 68.9808 75.5148 62.8102ZM58.6091 33.9135C59.5558 33.8884 60.5024 33.8363 61.4464 33.7571C60.1409 35.5588 59.1835 37.573 58.6091 39.7145V33.9135ZM64.0486 30.8468C62.2544 31.1087 60.4314 31.2637 58.6091 31.3145V10.6147C64.4369 11.3781 69.7707 17.2949 72.9232 26.5362C69.6609 27.1108 66.5839 28.5612 64.0486 30.8468ZM56.0397 45.7923V55.0729C50.5988 55.213 45.322 56.2417 40.4556 58.0752C39.5364 54.2329 39.0135 50.084 38.9258 45.7923H56.0397ZM81.8668 61.8566C83.3965 61.3348 84.87 60.6011 86.2425 59.6556L87.0017 60.4238C86.361 61.6441 85.6547 62.813 84.8895 63.9284C83.9207 63.1987 82.9125 62.5064 81.8668 61.8566ZM81.7684 27.1906C82.8536 26.5199 83.8986 25.8052 84.9002 25.0505C86.1621 26.88 87.2527 28.8468 88.1458 30.9287C86.3362 29.2894 84.1698 27.994 81.7684 27.1906ZM89.4037 56.8861L91.3285 58.8312L90.1951 59.9771C90.1562 59.9378 89.3341 59.106 88.271 58.0319C88.2804 58.0224 88.2897 58.013 88.2991 58.0042C88.662 57.6671 89.0175 57.3145 89.4037 56.8861Z" fill="#172350"/>
<path d="M92.8951 37.8559L92.5999 37.9095L92.605 37.9376L92.6153 37.9642L92.8951 37.8559ZM58.5422 7.95274L58.5319 8.25256L58.5319 8.25257L58.5422 7.95274ZM28.4753 22.4421L28.7162 22.6208V22.6208L28.4753 22.4421ZM28.3789 22.595L28.6198 22.7738L28.6323 22.757L28.6423 22.7387L28.3789 22.595ZM57.2702 81.0559L57.2697 81.3559H57.2702V81.0559ZM57.3673 81.0566V81.3566H57.3676L57.3673 81.0566ZM88.8916 62.3344L89.1045 62.123L88.8228 61.8394L88.6292 62.1891L88.8916 62.3344ZM89.0556 62.4996L89.3556 62.4976L89.3548 62.3751L89.2685 62.2882L89.0556 62.4996ZM89.9936 64.7737L90.2068 64.5627L89.9936 64.7737ZM101.856 76.7663L101.643 76.9772L101.856 76.7663ZM106.399 76.7663L106.186 76.5552L106.186 76.5553L106.399 76.7663ZM107.936 75.2136L108.149 75.4246L108.149 75.4246L107.936 75.2136ZM107.936 70.6207L108.149 70.4098L107.936 70.6207ZM104.365 67.0113L104.152 67.2222L104.365 67.0113ZM102.548 68.8481L102.334 69.0591L102.548 68.8481ZM106.118 72.4576L106.331 72.2467L106.118 72.4576ZM106.118 73.3761L105.905 73.1651L105.905 73.1651L106.118 73.3761ZM104.582 74.9294L104.795 75.1403L104.795 75.1403L104.582 74.9294ZM103.674 74.9294L103.46 75.1403H103.46L103.674 74.9294ZM91.8112 62.9361L92.0245 62.7252V62.7252L91.8112 62.9361ZM91.8112 62.0177L91.5979 61.8067L91.5976 61.807L91.8112 62.0177ZM93.349 60.463L93.1366 60.2512L93.1357 60.2521L93.349 60.463ZM94.2555 60.4651L94.4687 60.2541L94.2555 60.4651ZM93.8216 57.6779L93.6083 57.8889L93.6956 57.9771L93.8197 57.9779L93.8216 57.6779ZM91.0105 54.8353L90.7618 54.6676L90.6243 54.8714L90.7972 55.0462L91.0105 54.8353ZM74.8419 60.1693L74.8184 60.4684L74.8189 60.4684L74.8419 60.1693ZM60.5486 44.4969L60.8486 44.4977V44.4969H60.5486ZM60.5486 44.4949L60.2486 44.494V44.4949H60.5486ZM79.1969 29.1886L79.1358 29.4823H79.1358L79.1969 29.1886ZM90.4629 38.704L90.7419 38.5938L90.7419 38.5938L90.4629 38.704ZM31.3273 65.9832L31.1469 65.7434L30.8986 65.9302L31.094 66.1718L31.3273 65.9832ZM38.7437 61.5927L39.031 61.506L38.9318 61.1773L38.6194 61.3196L38.7437 61.5927ZM47.6605 77.0241L47.5732 77.3111L47.8609 76.8009L47.6605 77.0241ZM23.7548 45.7923V45.4923H23.4434L23.455 45.8035L23.7548 45.7923ZM36.3557 45.7923L36.6556 45.7864L36.6499 45.4923H36.3557V45.7923ZM38.0501 59.062L38.1721 59.3361L38.4016 59.234L38.3414 58.9901L38.0501 59.062ZM29.7774 63.9135L29.5307 64.0841L29.7084 64.341L29.9579 64.1531L29.7774 63.9135ZM29.7774 25.0729L29.9579 24.8333L29.7085 24.6453L29.5307 24.9022L29.7774 25.0729ZM38.0508 29.925L38.3421 29.9969L38.4023 29.753L38.1727 29.6509L38.0508 29.925ZM36.3557 43.194V43.494H36.6498L36.6556 43.2L36.3557 43.194ZM23.7548 43.194L23.455 43.1828L23.4434 43.494H23.7548V43.194ZM47.6444 11.9771L47.845 12.2002L47.557 11.6901L47.6444 11.9771ZM38.7431 27.3944L38.6187 27.6673L38.9311 27.8097L39.0303 27.481L38.7431 27.3944ZM31.3273 23.0032L31.0942 22.8143L30.8984 23.0559L31.1469 23.2429L31.3273 23.0032ZM83.3343 22.993L83.5146 23.2328L83.7627 23.0462L83.5677 22.8046L83.3343 22.993ZM77.9918 26.3663L77.9598 26.6646L78.0506 26.6743L78.1314 26.6318L77.9918 26.3663ZM75.5462 26.2695L75.2611 26.3629L75.3309 26.5759L75.555 26.5694L75.5462 26.2695ZM66.922 11.9338L67.0082 11.6464L66.7227 12.158L66.922 11.9338ZM41.1277 60.5937L41.0204 60.3135L40.7613 60.4128L40.8401 60.6788L41.1277 60.5937ZM56.0397 57.6725H56.3397V57.3643L56.0316 57.3726L56.0397 57.6725ZM56.0397 78.3744L56.0008 78.6718L56.3397 78.7161V78.3744H56.0397ZM40.4556 30.9111L40.5614 30.6304L40.243 30.5104L40.1638 30.8413L40.4556 30.9111ZM56.0397 33.9135H56.3397V33.6211L56.0474 33.6136L56.0397 33.9135ZM56.0397 43.194V43.494H56.3397V43.194H56.0397ZM38.9258 43.194L38.6259 43.1879L38.6196 43.494H38.9258V43.194ZM56.0397 10.6126H56.3397V10.2711L56.001 10.3151L56.0397 10.6126ZM56.0397 31.3145L56.0315 31.6144L56.3397 31.6227V31.3145H56.0397ZM41.1277 28.3927L40.8401 28.3076L40.7614 28.5735L41.0204 28.6728L41.1277 28.3927ZM58.6091 49.4262L58.8985 49.3471L58.3091 49.4262H58.6091ZM61.3721 55.2231L61.3474 55.5221L61.9936 55.5754L61.6159 55.0483L61.3721 55.2231ZM58.6091 55.0735H58.3091V55.3659L58.6014 55.3734L58.6091 55.0735ZM58.6091 57.6725L58.6173 57.3726L58.3091 57.3642V57.6725H58.6091ZM63.9469 58.124L64.1491 57.9023L64.0809 57.8401L63.9895 57.827L63.9469 58.124ZM72.8918 62.5395L73.1755 62.637L73.2894 62.3055L72.9442 62.2441L72.8918 62.5395ZM58.6091 78.3717H58.3091V78.7136L58.6482 78.6691L58.6091 78.3717ZM75.5148 62.8102L75.5237 62.5104L75.3 62.5037L75.2299 62.7163L75.5148 62.8102ZM78.1405 62.6979L78.2811 62.4329L78.1986 62.3891L78.1057 62.3999L78.1405 62.6979ZM83.3329 65.9926L83.5662 66.1813L83.7616 65.9397L83.5133 65.7529L83.3329 65.9926ZM66.9629 77.0133L66.7629 76.7896L67.0503 77.3003L66.9629 77.0133ZM58.6091 33.9135L58.6012 33.6136L58.3091 33.6213V33.9135H58.6091ZM61.4464 33.7571L61.6893 33.9332L62.0731 33.4035L61.4213 33.4582L61.4464 33.7571ZM58.6091 39.7145H58.3091L58.8989 39.7922L58.6091 39.7145ZM64.0486 30.8468L64.092 31.1437L64.182 31.1305L64.2495 31.0696L64.0486 30.8468ZM58.6091 31.3145H58.3091V31.623L58.6175 31.6144L58.6091 31.3145ZM58.6091 10.6147L58.6481 10.3172L58.3091 10.2728V10.6147H58.6091ZM72.9232 26.5362L72.9753 26.8316L73.3203 26.7708L73.2072 26.4393L72.9232 26.5362ZM56.0397 45.7923H56.3397V45.4923H56.0397V45.7923ZM56.0397 55.0729L56.0474 55.3728L56.3397 55.3652V55.0729H56.0397ZM40.4556 58.0752L40.1638 58.145L40.243 58.4759L40.5614 58.356L40.4556 58.0752ZM38.9258 45.7923V45.4923H38.6196L38.6259 45.7984L38.9258 45.7923ZM81.8668 61.8566L81.7699 61.5727L81.1705 61.7772L81.7084 62.1114L81.8668 61.8566ZM86.2425 59.6556L86.4559 59.4447L86.2792 59.266L86.0723 59.4086L86.2425 59.6556ZM87.0017 60.4238L87.2673 60.5632L87.3693 60.369L87.215 60.2129L87.0017 60.4238ZM84.8895 63.9284L84.709 64.168L84.9595 64.3566L85.1368 64.0981L84.8895 63.9284ZM81.7684 27.1906L81.6106 26.9354L81.0661 27.272L81.6732 27.4751L81.7684 27.1906ZM84.9002 25.0505L85.1471 24.8802L84.9695 24.6227L84.7196 24.8109L84.9002 25.0505ZM88.1458 30.9287L87.9444 31.151L88.4215 30.8104L88.1458 30.9287ZM89.4037 56.8861L89.617 56.675L89.3936 56.4493L89.1809 56.6852L89.4037 56.8861ZM91.3285 58.8312L91.5418 59.0422L91.7505 58.8312L91.5417 58.6202L91.3285 58.8312ZM90.1951 59.9771L89.9818 60.1881L90.1951 60.4037L90.4084 60.1881L90.1951 59.9771ZM88.271 58.0319L88.0577 57.8209L87.849 58.032L88.0578 58.243L88.271 58.0319ZM88.2991 58.0042L88.0949 57.7844L88.0938 57.7854L88.2991 58.0042ZM93.1903 37.8024C90.1593 21.1024 75.9587 8.2474 58.5524 7.65292L58.5319 8.25257C75.6466 8.83709 89.6176 21.4779 92.5999 37.9095L93.1903 37.8024ZM58.5525 7.65292C46.3086 7.2318 35.0432 13.0853 28.2343 22.2633L28.7162 22.6208C35.412 13.5951 46.4925 7.83848 58.5319 8.25256L58.5525 7.65292ZM28.2343 22.2633C28.1877 22.3261 28.1489 22.3901 28.1155 22.4514L28.6423 22.7387C28.6664 22.6944 28.6905 22.6555 28.7162 22.6208L28.2343 22.2633ZM28.138 22.4163C10.2063 46.5799 27.2883 81.3116 57.2697 81.3559L57.2706 80.7559C27.7944 80.7123 10.9741 46.552 28.6198 22.7738L28.138 22.4163ZM57.2702 81.3559C57.2701 81.3559 57.2706 81.3559 57.272 81.356C57.2736 81.356 57.2753 81.356 57.2783 81.3561C57.2833 81.3563 57.2934 81.3566 57.3043 81.3566V80.7566C57.3044 80.7566 57.3039 80.7566 57.3025 80.7566C57.3009 80.7565 57.2992 80.7565 57.2962 80.7564C57.2912 80.7563 57.2811 80.7559 57.2702 80.7559V81.3559ZM57.3043 81.3566H57.3244V80.7566H57.3043V81.3566ZM57.3244 81.3566H57.3452V80.7566H57.3244V81.3566ZM57.3452 81.3566H57.3673V80.7566H57.3452V81.3566ZM57.3676 81.3566C70.6404 81.3402 82.7261 74.0882 89.1541 62.4798L88.6292 62.1891C82.3049 73.6101 70.418 80.7405 57.3669 80.7566L57.3676 81.3566ZM88.6787 62.5459L88.8428 62.711L89.2685 62.2882L89.1045 62.123L88.6787 62.5459ZM88.7556 62.5015C88.7615 63.4 89.1017 64.2987 89.7803 64.9847L90.2068 64.5627C89.6442 63.9939 89.3605 63.2479 89.3556 62.4976L88.7556 62.5015ZM89.7803 64.9847L101.643 76.9772L102.069 76.5553L90.2068 64.5627L89.7803 64.9847ZM101.643 76.9772C103.015 78.3649 105.24 78.3657 106.612 76.9772L106.186 76.5553C105.048 77.7062 103.207 77.7057 102.069 76.5553L101.643 76.9772ZM106.612 76.9773L108.149 75.4246L107.722 75.0026L106.186 76.5552L106.612 76.9773ZM108.149 75.4246C109.517 74.0414 109.517 71.793 108.149 70.4098L107.722 70.8317C108.859 71.9812 108.859 73.8532 107.722 75.0027L108.149 75.4246ZM108.149 70.4098L104.579 66.8003L104.152 67.2222L107.722 70.8317L108.149 70.4098ZM104.579 66.8003C103.959 66.174 102.954 66.174 102.334 66.8003L102.761 67.2222C103.146 66.8333 103.767 66.8333 104.152 67.2222L104.579 66.8003ZM102.334 66.8004C101.717 67.4248 101.717 68.4352 102.334 69.0591L102.761 68.6372C102.375 68.2472 102.375 67.6129 102.761 67.2221L102.334 66.8004ZM102.334 69.0591L105.905 72.6686L106.331 72.2467L102.761 68.6372L102.334 69.0591ZM105.905 72.6686C106.039 72.8048 106.039 73.0289 105.905 73.1651L106.331 73.587C106.697 73.217 106.697 72.6167 106.331 72.2467L105.905 72.6686ZM105.905 73.1651L104.369 74.7184L104.795 75.1403L106.331 73.587L105.905 73.1651ZM104.369 74.7184C104.236 74.8528 104.02 74.8528 103.887 74.7184L103.46 75.1403C103.828 75.5122 104.428 75.5122 104.795 75.1403L104.369 74.7184ZM103.887 74.7184L92.0245 62.7252L91.5979 63.1471L103.46 75.1403L103.887 74.7184ZM92.0245 62.7252C91.8863 62.5855 91.9007 62.3542 92.0248 62.2284L91.5976 61.807C91.2651 62.1442 91.2072 62.7521 91.5979 63.1471L92.0245 62.7252ZM92.0245 62.2287L93.5603 60.676L93.1337 60.2541L91.5979 61.8067L92.0245 62.2287ZM93.5603 60.676L93.5623 60.674L93.1357 60.2521L93.1337 60.2541L93.5603 60.676ZM93.5614 60.6749C93.6911 60.5448 93.9057 60.5381 94.0422 60.676L94.4687 60.2541C94.0871 59.8682 93.4902 59.8967 93.1366 60.2512L93.5614 60.6749ZM94.0422 60.676L102.334 69.0591L102.761 68.6372L94.4687 60.2541L94.0422 60.676ZM102.334 69.0591C102.371 69.0957 102.411 69.1328 102.452 69.1622C102.473 69.1769 102.503 69.1953 102.538 69.2099C102.572 69.2237 102.633 69.2427 102.708 69.2336C102.794 69.223 102.87 69.1783 102.921 69.1122C102.965 69.0552 102.98 68.9967 102.986 68.9632C102.998 68.8987 102.991 68.8376 102.986 68.8038C102.975 68.7276 102.95 68.633 102.925 68.5435C102.897 68.4425 102.869 68.349 102.837 68.2313C102.775 68.0041 102.719 67.7674 102.706 67.5639C102.691 67.3436 102.732 67.2514 102.761 67.2222L102.334 66.8003C102.112 67.025 102.09 67.3527 102.107 67.6037C102.125 67.8715 102.195 68.1575 102.258 68.3895C102.289 68.5015 102.324 68.6217 102.347 68.7042C102.373 68.7983 102.387 68.857 102.392 68.8895C102.395 68.9101 102.39 68.8922 102.396 68.8581C102.399 68.8398 102.409 68.7931 102.447 68.7446C102.492 68.687 102.559 68.6473 102.635 68.638C102.699 68.6302 102.746 68.6468 102.765 68.6543C102.785 68.6626 102.797 68.6709 102.797 68.6713C102.798 68.6721 102.787 68.664 102.761 68.6372L102.334 69.0591ZM102.761 67.2221C102.789 67.1942 102.877 67.153 103.093 67.1677C103.294 67.1813 103.527 67.2372 103.752 67.3C103.868 67.3325 103.961 67.3604 104.061 67.3888C104.149 67.4139 104.243 67.4393 104.319 67.4505C104.353 67.4555 104.415 67.463 104.48 67.4512C104.514 67.4451 104.573 67.4297 104.63 67.3849C104.695 67.3332 104.739 67.2576 104.749 67.1728C104.759 67.0991 104.74 67.0393 104.727 67.0056C104.713 66.9698 104.695 66.9405 104.68 66.9194C104.651 66.8773 104.615 66.8369 104.579 66.8003L104.152 67.2222C104.178 67.249 104.186 67.2601 104.186 67.2591C104.185 67.2585 104.177 67.2471 104.169 67.2269C104.162 67.2087 104.146 67.162 104.154 67.0992C104.163 67.0252 104.202 66.9583 104.259 66.9132C104.307 66.875 104.354 66.8642 104.373 66.8608C104.409 66.8544 104.427 66.8599 104.407 66.857C104.375 66.8523 104.318 66.838 104.225 66.8116C104.143 66.7885 104.024 66.753 103.913 66.722C103.684 66.658 103.4 66.5871 103.134 66.5691C102.884 66.5522 102.557 66.5745 102.334 66.8004L102.761 67.2221ZM104.579 66.8003L96.2864 58.4172L95.8598 58.8392L104.152 67.2222L104.579 66.8003ZM96.2864 58.4172C95.6288 57.7524 94.7542 57.3839 93.8235 57.3779L93.8197 57.9779C94.5909 57.9828 95.3137 58.287 95.8598 58.8392L96.2864 58.4172ZM94.0349 57.467L91.2238 54.6243L90.7972 55.0462L93.6083 57.8889L94.0349 57.467ZM91.2592 55.003C94.7156 49.8768 95.3531 43.3796 93.1749 37.7477L92.6153 37.9642C94.7244 43.4172 94.1059 49.7078 90.7618 54.6676L91.2592 55.003ZM74.8655 59.8702C67.0776 59.2558 60.8256 52.7155 60.8486 44.4977L60.2486 44.496C60.2247 53.0295 66.7196 59.8294 74.8184 60.4684L74.8655 59.8702ZM60.8486 44.4969V44.4949H60.2486V44.4969H60.8486ZM60.8486 44.4957C60.8755 34.8936 69.5872 27.4967 79.1358 29.4823L79.258 28.8949C69.3235 26.829 60.2766 34.5266 60.2486 44.494L60.8486 44.4957ZM79.1358 29.4823C84.2612 30.5481 88.3305 34.1209 90.1838 38.8142L90.7419 38.5938C88.8167 33.7183 84.5872 30.003 79.258 28.8949L79.1358 29.4823ZM90.1838 38.8142C94.3437 49.352 86.1965 60.744 74.865 59.8702L74.8189 60.4684C86.6071 61.3774 95.059 49.5301 90.7419 38.5938L90.1838 38.8142ZM31.5076 66.2229C33.7718 64.5194 36.242 63.0617 38.8681 61.8657L38.6194 61.3196C35.9552 62.5331 33.4472 64.0128 31.1469 65.7434L31.5076 66.2229ZM38.4565 61.6793C40.1561 67.3152 43.0829 73.3188 47.4601 77.2474L47.8609 76.8009C43.5991 72.9758 40.7149 67.0904 39.031 61.506L38.4565 61.6793ZM47.7478 76.7371C41.4071 74.8083 35.7383 70.9607 31.5605 65.7945L31.094 66.1718C35.3462 71.43 41.1162 75.3469 47.5732 77.3111L47.7478 76.7371ZM23.7548 46.0923H36.3557V45.4923H23.7548V46.0923ZM36.0558 45.7982C36.1472 50.4532 36.7289 54.9614 37.7589 59.1339L38.3414 58.9901C37.3228 54.8635 36.7463 50.3998 36.6556 45.7864L36.0558 45.7982ZM37.9282 58.7879C34.9531 60.1112 32.1557 61.747 29.597 63.6738L29.9579 64.1531C32.4791 62.2545 35.2371 60.6416 38.1721 59.3361L37.9282 58.7879ZM30.0241 63.7428C26.3618 58.4491 24.2948 52.2493 24.0546 45.7812L23.455 45.8035C23.6995 52.3858 25.8033 58.6963 29.5307 64.0841L30.0241 63.7428ZM29.5969 25.3125C32.1557 27.24 34.9531 28.8758 37.9289 30.1991L38.1727 29.6509C35.237 28.3454 32.4791 26.7325 29.9579 24.8333L29.5969 25.3125ZM37.7596 29.8531C36.7007 34.1419 36.1459 38.6596 36.0558 43.188L36.6556 43.2C36.745 38.7118 37.2948 34.2387 38.3421 29.9969L37.7596 29.8531ZM36.3557 42.894H23.7548V43.494H36.3557V42.894ZM24.0546 43.2052C24.3034 36.5439 26.4747 30.3729 30.0241 25.2436L29.5307 24.9022C25.9181 30.1228 23.7083 36.4039 23.455 43.1828L24.0546 43.2052ZM47.4438 11.754C43.0877 15.6717 40.1615 21.6519 38.4558 27.3077L39.0303 27.481C40.7202 21.8772 43.6037 16.0145 47.845 12.2002L47.4438 11.754ZM38.8675 27.1214C36.2414 25.9246 33.7718 24.4669 31.5076 22.7634L31.1469 23.2429C33.4472 24.9735 35.9545 26.4533 38.6187 27.6673L38.8675 27.1214ZM31.5603 23.192C35.5634 18.2521 41.0558 14.297 47.7318 12.2641L47.557 11.6901C40.7592 13.7601 35.1677 17.7874 31.0942 22.8143L31.5603 23.192ZM83.154 22.7532C81.5082 23.9907 79.731 25.1131 77.8522 26.1007L78.1314 26.6318C80.0379 25.6296 81.8424 24.4901 83.5146 23.2328L83.154 22.7532ZM78.0239 26.068C77.1979 25.9793 76.3669 25.9455 75.5375 25.9696L75.555 26.5694C76.3564 26.5461 77.1603 26.5787 77.9598 26.6646L78.0239 26.068ZM75.8313 26.1761C73.7753 19.9002 70.7352 14.9224 67.1214 11.7096L66.7227 12.158C70.2361 15.2815 73.228 20.1569 75.2611 26.3629L75.8313 26.1761ZM66.8358 12.2211C73.019 14.0763 78.7213 17.7536 83.1008 23.1814L83.5677 22.8046C79.1102 17.2801 73.3041 13.5354 67.0082 11.6464L66.8358 12.2211ZM41.2351 60.8738C45.8453 59.1076 50.8635 58.1123 56.0478 57.9724L56.0316 57.3726C50.7814 57.5143 45.6959 58.5223 41.0204 60.3135L41.2351 60.8738ZM55.7397 57.6725V78.3744H56.3397V57.6725H55.7397ZM56.0786 78.0769C52.3434 77.5886 49.2359 75.0945 46.7727 71.7481C44.3116 68.4045 42.5212 64.2454 41.4154 60.5085L40.8401 60.6788C41.959 64.4601 43.7754 68.6881 46.2895 72.1037C48.8015 75.5165 52.0377 78.1537 56.0008 78.6718L56.0786 78.0769ZM40.3498 31.1918C45.2484 33.0375 50.5585 34.0724 56.032 34.2134L56.0474 33.6136C50.6392 33.4743 45.3956 32.4517 40.5614 30.6304L40.3498 31.1918ZM55.7397 33.9135V43.194H56.3397V33.9135H55.7397ZM56.0397 42.894H38.9258V43.494H56.0397V42.894ZM39.2258 43.2002C39.3144 38.8746 39.8421 34.7661 40.7474 30.9809L40.1638 30.8413C39.2481 34.6704 38.7153 38.8217 38.6259 43.1879L39.2258 43.2002ZM55.7397 10.6126V31.3145H56.3397V10.6126H55.7397ZM56.0478 31.0146C50.8635 30.874 45.8453 29.8794 41.2351 28.1125L41.0204 28.6728C45.6959 30.4647 50.7814 31.472 56.0315 31.6144L56.0478 31.0146ZM41.4154 28.4778C42.5242 24.7299 44.3114 20.5702 46.77 17.2292C49.2305 13.8855 52.3364 11.3968 56.0784 10.9101L56.001 10.3151C52.0313 10.8315 48.7965 13.4629 46.2867 16.8736C43.7749 20.2869 41.9619 24.5157 40.8401 28.3076L41.4154 28.4778ZM58.3197 49.5052C58.8914 51.5983 59.8341 53.5922 61.1282 55.3979L61.6159 55.0483C60.3634 53.3007 59.4515 51.3717 58.8985 49.3471L58.3197 49.5052ZM61.3967 54.9241C60.472 54.8479 59.5444 54.7975 58.6168 54.7736L58.6014 55.3734C59.5176 55.397 60.4338 55.4468 61.3474 55.5221L61.3967 54.9241ZM58.9091 55.0735V49.4262H58.3091V55.0735H58.9091ZM58.601 57.9724C60.3785 58.0208 62.1552 58.1701 63.9043 58.4209L63.9895 57.827C62.2171 57.5729 60.4174 57.4217 58.6173 57.3726L58.601 57.9724ZM63.7447 58.3456C66.2962 60.6732 69.4503 62.2327 72.8393 62.8349L72.9442 62.2441C69.6679 61.6619 66.6173 60.154 64.1491 57.9023L63.7447 58.3456ZM72.608 62.442C69.4626 71.5967 64.2005 77.335 58.5701 78.0742L58.6482 78.6691C64.6278 77.8841 70.0078 71.8566 73.1755 62.637L72.608 62.442ZM58.9091 78.3717V57.6725H58.3091V78.3717H58.9091ZM75.5058 63.1101C76.4061 63.1369 77.3078 63.0971 78.1752 62.9959L78.1057 62.3999C77.2673 62.4977 76.3948 62.5363 75.5237 62.5104L75.5058 63.1101ZM77.9998 62.9629C79.822 63.9303 81.5494 65.0265 83.1526 66.2324L83.5133 65.7529C81.8843 64.5276 80.1303 63.4147 78.2811 62.4329L77.9998 62.9629ZM83.0997 65.804C78.8794 71.0209 73.1824 74.8051 66.8754 76.7263L67.0503 77.3003C73.4701 75.3447 79.2693 71.493 83.5662 66.1813L83.0997 65.804ZM67.1628 77.2369C70.7398 74.0387 73.753 69.1096 75.7997 62.9042L75.2299 62.7163C73.2061 68.852 70.2408 73.68 66.7629 76.7896L67.1628 77.2369ZM58.6171 34.2134C59.5694 34.1882 60.5218 34.1357 61.4715 34.0561L61.4213 33.4582C60.4831 33.5369 59.5421 33.5887 58.6012 33.6136L58.6171 34.2134ZM61.2034 33.5811C59.8764 35.4125 58.9032 37.4601 58.3194 39.6368L58.8989 39.7922C59.4638 37.686 60.4054 35.7051 61.6893 33.9332L61.2034 33.5811ZM58.9091 39.7145V33.9135H58.3091V39.7145H58.9091ZM64.0053 30.55C62.223 30.8101 60.4117 30.9642 58.6008 31.0146L58.6175 31.6144C60.4512 31.5633 62.2858 31.4073 64.092 31.1437L64.0053 30.55ZM58.9091 31.3145V10.6147H58.3091V31.3145H58.9091ZM58.5702 10.9121C64.2228 11.6526 69.4977 17.424 72.6393 26.633L73.2072 26.4393C70.0436 17.1657 64.6511 11.1036 58.6481 10.3172L58.5702 10.9121ZM72.8712 26.2407C69.5554 26.8247 66.4264 28.2993 63.8478 30.624L64.2495 31.0696C66.7415 28.823 69.7664 27.3968 72.9753 26.8316L72.8712 26.2407ZM55.7397 45.7923V55.0729H56.3397V45.7923H55.7397ZM56.032 54.773C50.5585 54.9139 45.2484 55.9489 40.3498 57.7945L40.5614 58.356C45.3956 56.5346 50.6392 55.512 56.0474 55.3728L56.032 54.773ZM40.7473 58.0054C39.8335 54.1853 39.3131 50.0578 39.2258 45.7862L38.6259 45.7984C38.714 50.1102 39.2393 54.2806 40.1638 58.145L40.7473 58.0054ZM38.9258 46.0923H56.0397V45.4923H38.9258V46.0923ZM81.9636 62.1405C83.519 61.61 85.0173 60.864 86.4127 59.9026L86.0723 59.4086C84.7228 60.3382 83.274 61.0596 81.7699 61.5727L81.9636 62.1405ZM86.0291 59.8665L86.7883 60.6347L87.215 60.2129L86.4559 59.4447L86.0291 59.8665ZM86.736 60.2843C86.1009 61.4941 85.4007 62.6529 84.6421 63.7586L85.1368 64.0981C85.9087 62.9731 86.6211 61.7941 87.2673 60.5632L86.736 60.2843ZM85.07 63.6887C84.0942 62.9538 83.0786 62.2563 82.0251 61.6018L81.7084 62.1114C82.7464 62.7564 83.7473 63.4437 84.709 64.168L85.07 63.6887ZM81.9261 27.4458C83.0191 26.7703 84.0718 26.0504 85.0807 25.2901L84.7196 24.8109C83.7255 25.56 82.6881 26.2695 81.6106 26.9354L81.9261 27.4458ZM84.6532 25.2209C85.904 27.0341 86.9849 28.9835 87.8701 31.047L88.4215 30.8104C87.5205 28.7101 86.4203 26.7259 85.1471 24.8802L84.6532 25.2209ZM88.3472 30.7064C86.5078 29.0401 84.3054 27.7231 81.8635 26.9061L81.6732 27.4751C84.0341 28.265 86.1646 29.5388 87.9444 31.151L88.3472 30.7064ZM89.1905 57.0971L91.1152 59.0422L91.5417 58.6202L89.617 56.675L89.1905 57.0971ZM91.1152 58.6203L89.9818 59.7661L90.4084 60.1881L91.5418 59.0422L91.1152 58.6203ZM90.4084 59.7661C90.3697 59.727 89.5474 58.895 88.4842 57.8209L88.0578 58.243C89.1209 59.317 89.9428 60.1487 89.9818 60.1881L90.4084 59.7661ZM88.4843 58.2429C88.4944 58.2326 88.4998 58.2272 88.5044 58.2229L88.0938 57.7854C88.0797 57.7987 88.0663 57.8122 88.0577 57.8209L88.4843 58.2429ZM88.5033 58.224C88.8715 57.882 89.2334 57.523 89.6266 57.0869L89.1809 56.6852C88.8016 57.1059 88.4525 57.4523 88.0949 57.7844L88.5033 58.224Z" fill="#172350" mask="url(#path-3-outside-1_1181_18161)"/>
</svg>
