<svg width="30" height="30" viewBox="0 0 30 30" fill="none" xmlns="http://www.w3.org/2000/svg">
<path d="M28 7.67101C26.4274 7.74186 26.4617 7.73608 26.284 7.75062L27.2153 5.15081C27.2153 5.15081 24.3081 6.19614 23.5711 6.38313C21.6356 4.68267 18.7585 4.60754 16.7016 5.84322C15.0173 6.85537 14.1132 8.59348 14.4147 10.625C11.1366 10.1804 8.37453 8.66153 6.19386 6.10106L5.50416 5.29138L4.98879 6.21646C4.33743 7.3854 4.12114 8.72194 4.37959 9.9798C4.48563 10.4958 4.66588 10.988 4.91555 11.4489L4.32389 11.2248L4.2537 12.1911C4.18256 13.1727 4.51691 14.3185 5.14825 15.2559C5.32601 15.5198 5.55489 15.8098 5.845 16.0957L5.53925 16.0499L5.91233 17.1571C6.40271 18.6118 7.42123 19.7373 8.74303 20.363C7.42295 20.9106 6.35655 21.2599 4.6037 21.8235L3 22.3388L4.48125 23.1304C5.04601 23.4323 7.04167 24.4403 9.01349 24.7427C13.3966 25.4146 18.3315 24.8674 21.6537 21.9428C24.452 19.4795 25.3701 15.9755 25.1794 12.329C25.1506 11.777 25.3053 11.2502 25.6151 10.8458C26.2355 10.0361 27.9962 7.67642 28 7.67101ZM24.4437 9.98819C23.9293 10.6595 23.6717 11.5169 23.7178 12.4021C23.9103 16.0803 22.8864 18.9327 20.6744 20.8798C18.0906 23.1545 13.9228 24.0473 9.24027 23.3293C8.39227 23.1994 7.51584 22.9084 6.79047 22.6177C8.26009 22.1235 9.39496 21.683 11.2277 20.8351L13.7862 19.6514L10.9615 19.4747C9.60839 19.39 8.48172 18.7491 7.78916 17.7084C8.1569 17.6875 8.51147 17.6293 8.86452 17.5331L11.5587 16.7997L8.84202 16.1494C7.52194 15.8334 6.76949 15.0614 6.37067 14.4693C6.10879 14.0802 5.9377 13.6816 5.83508 13.3142C6.10745 13.3856 6.42503 13.4365 6.93715 13.486L9.45161 13.7292L7.45938 12.2101C6.02391 11.1157 5.44865 9.47158 5.87037 7.891C10.3503 12.4329 15.6104 12.0915 16.1399 12.2116C16.0234 11.1051 16.0203 11.1025 15.9898 10.9972C15.3117 8.65426 16.7978 7.46463 17.468 7.06193C18.868 6.22093 21.0902 6.09416 22.6295 7.47973C22.9619 7.77877 23.4115 7.89641 23.8323 7.79424C24.2099 7.70252 24.5199 7.60539 24.8233 7.49968L24.1916 9.26296L24.998 9.26352C24.8458 9.46301 24.6633 9.70183 24.4437 9.98819Z" fill="#69708A"/>
</svg>
