<svg width="30" height="30" viewBox="0 0 30 30" fill="none" xmlns="http://www.w3.org/2000/svg">
<path d="M26.5043 9.12572C26.1801 7.85705 25.2242 6.85821 24.0103 6.51892C22.2103 6.01465 15.7328 6 15 6C14.2672 6 7.78967 6.01465 5.99011 6.51873C4.77576 6.85821 3.81995 7.85705 3.49585 9.12515C3.00568 11.0381 3 14.8392 3 15C3 15.1608 3.00568 18.9619 3.49567 20.8743C3.81995 22.143 4.77576 23.1418 5.98975 23.4811C7.78967 23.9853 14.2672 24 15 24C15.7328 24 22.2103 23.9853 24.0099 23.4813C25.2242 23.1418 26.1801 22.143 26.5042 20.8749C26.9943 18.9619 27 15.1608 27 15C27 14.8392 26.9943 11.0381 26.5043 9.12572ZM25.1451 20.4992C24.9498 21.264 24.3746 21.8659 23.6442 22.0701C22.2729 22.4543 16.9395 22.5386 15 22.5386C13.0607 22.5386 7.72723 22.4543 6.35541 22.0699C5.62537 21.8659 5.05042 21.264 4.85468 20.4986C4.41174 18.7704 4.40625 15.0375 4.40625 15C4.40625 14.9625 4.41138 11.2313 4.85486 9.50078C5.05023 8.736 5.62537 8.13411 6.35577 7.92993C7.72705 7.54573 13.0607 7.46143 15 7.46143C16.9393 7.46143 22.2729 7.54573 23.6446 7.93012C24.3746 8.13411 24.9498 8.736 25.1453 9.50135C25.5883 11.2296 25.5938 14.9625 25.5938 15C25.5938 15.0375 25.5886 18.7687 25.1451 20.4992Z" fill="#69708A" stroke="#69708A" stroke-width="0.2"/>
<path d="M12 20L20 15.0002L12 10V20ZM13.4009 12.6452L17.1689 15.0002L13.4009 17.355V12.6452Z" fill="#69708A"/>
</svg>
