<svg width="96" height="40" viewBox="0 0 96 40" fill="none" xmlns="http://www.w3.org/2000/svg">
<g clip-path="url(#clip0_6986_13647)">
<path d="M6.76428 31.7817H24.5093C24.8992 32.8173 25.3746 33.9385 25.9452 35.1071C26.5158 36.2757 27.0388 37.1974 27.5809 38.1H0.00292969V1.57739H6.74526V16.6748H22.7215C22.6264 17.7009 22.5693 18.8031 22.5598 19.9812C22.5503 21.1594 22.5598 22.062 22.6549 23.0026H6.77379L6.76428 31.7817ZM11.424 1.57739H28.0278C27.4573 2.48001 26.8677 3.47764 26.2876 4.58928C25.7075 5.70092 25.194 6.86956 24.7755 7.89569H11.462L11.424 1.57739Z" fill="#EEF2F6"/>
<path d="M76.299 7.12548L69.8705 23.268H77.8111L80.2741 29.3773H67.4075L64.1172 37.5863H57.2607L71.9056 1.06372H80.74L95.3849 37.5863H88.5379L76.299 7.12548Z" fill="#EEF2F6"/>
<path d="M39.6494 7.54373H41.8366C47.8562 7.54373 52.7156 12.9784 52.7156 19.3537C52.7156 19.6197 52.7156 19.9333 52.7156 20.1898C54.203 17.7582 55.0108 14.9727 55.055 12.1233C55.055 5.74801 49.568 1.04492 42.6925 1.04492H39.6494V7.54373Z" fill="#EEF2F6"/>
<path d="M39.6399 31.0497H36.9676V7.54378H39.6399V1.06396H30.2158V37.5865H39.6399V31.0497Z" fill="#EEF2F6"/>
<path d="M59.8859 13.4536C58.6782 23.4869 52.6681 30.7933 41.8176 31.0593H39.6494V37.5866H42.5023C47.3633 37.6069 52.0334 35.6975 55.4858 32.2785C58.9382 28.8594 60.8903 24.2105 60.913 19.3539C60.9163 17.3488 60.5952 15.3563 59.962 13.4536" fill="#EEF2F6"/>
</g>
<defs>
<clipPath id="clip0_6986_13647">
<rect width="95.3846" height="40" fill="white"/>
</clipPath>
</defs>
</svg>
